<?xml version="1.0" encoding="UTF-8" standalone="no"?>
<svg
   height="16"
   viewBox="0 0 16 16"
   width="16"
   version="1.1"
   id="svg1"
   sodipodi:docname="remote_collision_shape_2d.svg"
   inkscape:version="1.3.2 (091e20e, 2023-11-25, custom)"
   xmlns:inkscape="http://www.inkscape.org/namespaces/inkscape"
   xmlns:sodipodi="http://sodipodi.sourceforge.net/DTD/sodipodi-0.dtd"
   xmlns="http://www.w3.org/2000/svg"
   xmlns:svg="http://www.w3.org/2000/svg">
  <defs
     id="defs1" />
  <sodipodi:namedview
     id="namedview1"
     pagecolor="#ffffff"
     bordercolor="#000000"
     borderopacity="0.25"
     inkscape:showpageshadow="2"
     inkscape:pageopacity="0.0"
     inkscape:pagecheckerboard="0"
     inkscape:deskcolor="#d1d1d1"
     inkscape:zoom="36.9375"
     inkscape:cx="7.9864636"
     inkscape:cy="8"
     inkscape:window-width="1440"
     inkscape:window-height="829"
     inkscape:window-x="-8"
     inkscape:window-y="-8"
     inkscape:window-maximized="1"
     inkscape:current-layer="svg1" />
  <path
     d="M 8,1 C 5.1419479,1.0000726 2.5010261,2.5248543 1.072,5 0.40533364,6.1553328 2.1383336,7.1553328 2.805,6 5.1149123,2.0026603 10.885088,2.0026603 13.195,6 13.861666,7.1553328 15.594666,6.1553328 14.928,5 13.498974,2.5248543 10.858052,1.0000726 8,1 Z M 8,5 C 6.18976,5.0003518 4.6053996,6.2164089 4.137,7.965 3.8422208,9.2229962 5.6947782,9.7189942 6.068,8.482 6.5971872,6.504779 9.4028128,6.504779 9.932,8.482 10.305222,9.7189942 12.157779,9.2229962 11.863,7.965 11.3946,6.2164089 9.81024,5.0003518 8,5 Z M 8,9 C 7.4477153,9 7,9.4477153 7,10 H 9 C 9,9.4477153 8.5522847,9 8,9 Z"
     fill="#8da5f3"
     id="path1"
     sodipodi:nodetypes="ccccccccccccsccs" />
  <rect
     style="fill:none;stroke:#8da5f3;stroke-width:1.5;stroke-linejoin:round;stroke-dasharray:none;stroke-opacity:1"
     id="rect1"
     width="9.905117"
     height="3.1369276"
     x="3.0203688"
     y="10.736105" />
</svg>
