<?xml version="1.0" encoding="UTF-8" standalone="no"?>
<svg
   height="16"
   viewBox="0 0 16 16"
   width="16"
   version="1.1"
   id="svg1"
   sodipodi:docname="sound_2d.svg"
   inkscape:version="1.3 (0e150ed6c4, 2023-07-21)"
   xml:space="preserve"
   xmlns:inkscape="http://www.inkscape.org/namespaces/inkscape"
   xmlns:sodipodi="http://sodipodi.sourceforge.net/DTD/sodipodi-0.dtd"
   xmlns:xlink="http://www.w3.org/1999/xlink"
   xmlns="http://www.w3.org/2000/svg"
   xmlns:svg="http://www.w3.org/2000/svg"><defs
     id="defs1"><linearGradient
       id="linearGradient7"
       inkscape:collect="always"><stop
         style="stop-color:#d98b5d;stop-opacity:1;"
         offset="0"
         id="stop9" /><stop
         style="stop-color:#8bea75;stop-opacity:1;"
         offset="1"
         id="stop8" /></linearGradient><linearGradient
       inkscape:collect="always"
       xlink:href="#linearGradient7"
       id="linearGradient9"
       x1="2.8270271"
       y1="4.6100612"
       x2="7.5943522"
       y2="13.345741"
       gradientUnits="userSpaceOnUse" /></defs><sodipodi:namedview
     id="namedview1"
     pagecolor="#ffffff"
     bordercolor="#111111"
     borderopacity="1"
     inkscape:showpageshadow="0"
     inkscape:pageopacity="0"
     inkscape:pagecheckerboard="1"
     inkscape:deskcolor="#d1d1d1"
     inkscape:zoom="33.311658"
     inkscape:cx="8.3604364"
     inkscape:cy="8.3003974"
     inkscape:window-width="1366"
     inkscape:window-height="697"
     inkscape:window-x="-8"
     inkscape:window-y="-8"
     inkscape:window-maximized="1"
     inkscape:current-layer="svg1"
     showgrid="true"><inkscape:grid
       id="grid1"
       units="px"
       originx="8"
       originy="8"
       spacingx="1"
       spacingy="1"
       empcolor="#0099e5"
       empopacity="0.30196078"
       color="#0099e5"
       opacity="0.14901961"
       empspacing="5"
       dotted="false"
       gridanglex="30"
       gridanglez="30"
       visible="true"
       snapvisiblegridlinesonly="true" /></sodipodi:namedview><path
     id="path11"
     style="fill:url(#linearGradient9);fill-opacity:1;stroke:none;stroke-width:0.713124;stroke-linecap:round;stroke-linejoin:round;paint-order:markers stroke fill"
     d="m 8.9941406,0.99414062 -2.9960937,2.99999998 -5.00195315,0.00391 0.009766,3.9589843 2.484375,1.515625 2.484375,1.5136718 0.019531,1.009766 3.0117188,3.013672 z"
     sodipodi:nodetypes="ccccccccc" /><path
     style="fill:#8da5f3;stroke:none;stroke-width:0.272328;stroke-linecap:round;stroke-linejoin:round;paint-order:markers stroke fill"
     d="m 8.9758366,3.9925962 c 0,0 1.5910354,1.7140053 1.5910354,3.9540915 0,2.2400863 -1.5752827,3.9710623 -1.5752827,3.9710623 0,0 1.0396867,-1.120043 1.0396867,-3.9540918 0,-2.8340486 -1.0554394,-3.971062 -1.0554394,-3.971062 z"
     id="path9" /><path
     style="fill:#8da5f3;stroke:none;stroke-width:0.373603;stroke-linecap:round;stroke-linejoin:round;paint-order:markers stroke fill"
     d="m 10.009356,1.9493168 c 0,0 1.981289,2.5904853 1.981289,5.9760699 0,3.3855853 -1.961672,6.0017193 -1.961672,6.0017193 0,0 1.294703,-1.692792 1.294703,-5.9760707 0,-4.2832778 -1.31432,-6.0017185 -1.31432,-6.0017185 z"
     id="path9-1" /><path
     style="fill:#8da5f3;stroke:none;stroke-width:0.533163;stroke-linecap:round;stroke-linejoin:round;paint-order:markers stroke fill"
     d="m 11.039376,0.00935581 c 0,0 3.031972,3.44748799 3.031972,7.95311549 0,4.5056297 -3.001952,7.9872507 -3.001952,7.9872507 0,0 1.981288,-2.252813 1.981288,-7.9531169 0,-5.7003019 -2.011308,-7.98724929 -2.011308,-7.98724929 z"
     id="path9-1-9" /><path
     sodipodi:type="star"
     style="fill:#8da5f3;stroke:none;stroke-width:0.5;stroke-linecap:round;stroke-linejoin:round;paint-order:markers stroke fill"
     id="path12"
     inkscape:flatsided="false"
     sodipodi:sides="3"
     sodipodi:cx="0.99064416"
     sodipodi:cy="8.9758368"
     sodipodi:r1="3.0972524"
     sodipodi:r2="1.5486264"
     sodipodi:arg1="0"
     sodipodi:arg2="1.0471976"
     inkscape:rounded="0"
     inkscape:randomized="0"
     d="m 4.0878965,8.9758368 -2.3229392,1.3411502 -2.32293933,1.341149 -2.4e-7,-2.6822993 2.4e-7,-2.6822992 2.32293943,1.3411495 z"
     inkscape:transform-center-x="-0.66924465"
     transform="matrix(0.86430771,0,0,0.89927459,1.4853012,3.3656954)" /></svg>
