<?xml version="1.0" encoding="UTF-8" standalone="no"?>
<!-- Created with Inkscape (http://www.inkscape.org/) -->

<svg
   width="18"
   height="18"
   viewBox="0 0 4.7624999 4.7625001"
   version="1.1"
   id="svg1"
   xml:space="preserve"
   sodipodi:docname="state_machine.svg"
   inkscape:version="1.3 (0e150ed6c4, 2023-07-21)"
   xmlns:inkscape="http://www.inkscape.org/namespaces/inkscape"
   xmlns:sodipodi="http://sodipodi.sourceforge.net/DTD/sodipodi-0.dtd"
   xmlns="http://www.w3.org/2000/svg"
   xmlns:svg="http://www.w3.org/2000/svg"><sodipodi:namedview
     id="namedview1"
     pagecolor="#ffffff"
     bordercolor="#111111"
     borderopacity="1"
     inkscape:showpageshadow="0"
     inkscape:pageopacity="0"
     inkscape:pagecheckerboard="1"
     inkscape:deskcolor="#d1d1d1"
     showgrid="true"
     inkscape:zoom="2.8284271"
     inkscape:cx="18.915106"
     inkscape:cy="-13.965359"
     inkscape:window-width="1366"
     inkscape:window-height="697"
     inkscape:window-x="-8"
     inkscape:window-y="-8"
     inkscape:window-maximized="1"
     inkscape:current-layer="svg1"><inkscape:grid
       id="grid1"
       units="px"
       originx="0"
       originy="0"
       spacingx="0.26458333"
       spacingy="0.26458334"
       empcolor="#0099e5"
       empopacity="0.30196078"
       color="#0099e5"
       opacity="0.14901961"
       empspacing="5"
       dotted="false"
       gridanglex="30"
       gridanglez="30"
       visible="true" /></sodipodi:namedview><defs
     id="defs1" /><path
     d="M 1.473843,0.5261869 1.3781497,0.90862117 A 0.84684277,0.84684277 0 0 0 1.2614548,0.95604437 L 0.92475007,0.75364887 0.68526291,0.99330537 0.88765834,1.3310263 a 0.84684277,0.84684277 0 0 0 -0.04827,0.1160174 l -0.38175679,0.095355 v 0.3387372 l 0.38243419,0.095524 a 0.84684277,0.84684277 0 0 0 0.047254,0.1165256 L 0.68526291,2.4302283 0.92475007,2.6697154 1.262471,2.4673199 a 0.84684277,0.84684277 0 0 0 0.1160175,0.04827 l 0.095355,0.3817569 H 1.8125801 L 1.908104,2.5149125 A 0.84684277,0.84684277 0 0 0 2.0246295,2.4674893 L 2.361673,2.6697154 2.6011601,2.4302283 2.3987647,2.0925073 a 0.84684277,0.84684277 0 0 0 0.04827,-0.1160175 L 2.8287915,1.8811354 V 1.5423982 L 2.4463573,1.4468744 A 0.84684277,0.84684277 0 0 0 2.3989341,1.3303488 L 2.6011601,0.99330537 2.361673,0.75381825 2.0239521,0.95621367 a 0.84684277,0.84684277 0 0 0 -0.1161869,-0.04827 L 1.8125801,0.5261869 Z m 0.1693685,0.8468428 a 0.33873712,0.33873712 0 0 1 0,0.6774742 0.33873712,0.33873712 0 0 1 0,-0.6774742 z"
     fill="#e0e0e0"
     id="path1"
     style="fill:#5af0aa;fill-opacity:1;stroke-width:0.169368" /><path
     d="M 3.4534234,2.0214745 3.244235,2.3556202 a 0.84684277,0.84684277 0 0 0 -0.1256382,0.00904 L 2.8609153,2.0681247 2.5590916,2.2220461 2.6472196,2.6057813 a 0.84684277,0.84684277 0 0 0 -0.081759,0.095423 L 2.1729221,2.6739228 2.0682466,2.996081 2.4024447,3.2051085 a 0.84684277,0.84684277 0 0 0 0.00893,0.1254248 L 2.1150581,3.5886409 2.2688183,3.8904123 2.6525535,3.8022842 a 0.84684277,0.84684277 0 0 0 0.095423,0.081759 L 2.7206951,4.2765818 3.0428527,4.3812572 3.2518801,4.047059 A 0.84684277,0.84684277 0 0 0 3.377357,4.037969 L 3.6354131,4.3344458 3.9371845,4.1806856 3.8490565,3.7969503 a 0.84684277,0.84684277 0 0 0 0.081759,-0.095423 L 4.3233538,3.7288092 4.4280294,3.4066511 4.0938313,3.1976238 A 0.84684277,0.84684277 0 0 0 4.0847376,3.0721469 L 4.381218,2.8140908 4.2274578,2.5123194 3.8437226,2.6004474 a 0.84684277,0.84684277 0 0 0 -0.095584,-0.081811 l 0.027443,-0.392486 z M 3.3528135,2.8792076 A 0.33873713,0.33873713 0 0 1 3.1434627,3.523524 0.33873713,0.33873713 0 0 1 3.3528135,2.8792076 Z"
     fill="#e0e0e0"
     id="path1-2"
     style="fill:#f08383;fill-opacity:1;stroke-width:0.169368" /></svg>
